# xmcd
#
# Track frame offsets:
#	150
#	18856
#	33441
#	62014
#	84991
#	94357
#	116648
#	131039
#	144423
#	162337
#
# Disc length: 2443 seconds
#
# Revision: 0
# Processed by: cddbd v1.5.2PL0 Copyright (c) Steve Scherf et al.
# Submitted via: audiograbber 1.83.01
#
DISCID=8009890a
DTITLE=Sampler - The World Of Blues Power 2
DYEAR=1900
DGENRE=Blues
TTITLE0=Sam Apple Pie - Hawk
TTITLE1=John Mayall with Eric Clapton - Hideaway
TTITLE2=Ten Years After - I´m Going Home
TTITLE3=Savoy Brown - Don´t Turn Me From Your Door
TTITLE4=Champion Jack Dupree - Shim-Sham-Shimmy
TTITLE5=Keef Hartley Band - Think It Over
TTITLE6=John Mayall  - Looking Back
TTITLE7=Ten Years After - Losing The Dog
TTITLE8=Sam Apple Pie - Sometime Girl
TTITLE9=John Mayall  - The Bear
EXTD=
EXTT0=
EXTT1=
EXTT2=
EXTT3=
EXTT4=
EXTT5=
EXTT6=
EXTT7=
EXTT8=
EXTT9=
PLAYORDER=
